# xmcd CD database file
#
# Track frame offsets:
#	150
#	15441
#	33043
#	48320
#
# Disc length: 876 seconds
#
# Revision: 0
# Processed by: cddbd v1.5PL3 Copyright (c) Steve Scherf et al.
# Submitted via: CDex 1.51
#
DISCID=1f036a04
DTITLE=ゆめりあ - テーマソングス
DYEAR=2003
DGENRE=Anime
TTITLE0=２４時間あいしてる
TTITLE1=precious treasure
TTITLE2=２４時間あいしてる(Vocal off)
TTITLE3=precious treasure(Vocal off)
EXTD=YEAR: 2003
EXTT0=
EXTT1=
EXTT2=
EXTT3=
PLAYORDER=
